<?xml version="1.0" encoding="UTF-8"?>
<svg id="uuid-57f85e51-aa40-46d5-99fe-0ae275e150c6" data-name="Warstwa 4" xmlns="http://www.w3.org/2000/svg" viewBox="0 0 3179.69 3000">
  <defs>
    <style>
      .uuid-4db4c317-f0d6-48c5-9558-b483fba785eb {
        fill:rgba(255, 255, 255, 1);
      }
    </style>
  </defs>
  <path class="uuid-4db4c317-f0d6-48c5-9558-b483fba785eb" d="M2515.26,1137.19c-41.54-308.05-601.84-317.81-601.84-317.81H469.59c83.8,255.63,323.67,273.63,323.67,273.63h567.04c108.92,1.39,171.03,70.68,171.03,70.68h-966.66c95.74,273.76,373.85,274.68,373.85,274.68,0,0,273.89-1.58,393.09,0,119.21,1.59,183.57,74.51,183.57,74.51h-803.74c82.28,169.85,311.74,298.55,549.1,396.66,237.36,98.11,618.2,377.93,618.2,377.93,0,0-47.48-555.03,310.94-782.11,358.42-227.07,491.34,0,491.34,0,179.61-248.44-165.76-368.17-165.76-368.17ZM2292.01,1162.77s-21.63,47.74-77.8,47.74-88.62-31.65-92.57-110.38c0,0-40.49-18.99-110.25-30.26,0,0,196.03-17.87,354.47,92.9h-73.85Z"/>
</svg>